<svg width="15" height="20" viewBox="0 0 15 20" fill="none" xmlns="http://www.w3.org/2000/svg">
<g id="Notification">
<path id="Notification_2" fill-rule="evenodd" clip-rule="evenodd" d="M13.2796 6.79633C13.2796 8.05226 13.5562 8.79253 14.1649 9.64559C14.6263 10.2741 14.7737 11.0808 14.7737 11.956C14.7737 12.8302 14.5343 13.6601 14.0548 14.3339C13.427 15.1417 12.5416 15.6573 11.638 15.747C10.3286 15.8809 9.01839 15.9937 7.69076 15.9937C6.3623 15.9937 5.05288 15.9263 3.74347 15.747C2.83906 15.6573 1.95369 15.1417 1.32673 14.3339C0.847193 13.6601 0.60701 12.8302 0.60701 11.956C0.60701 11.0808 0.755261 10.2741 1.21575 9.64559C1.84354 8.79253 2.10194 8.05226 2.10194 6.79633V6.3703C2.10194 4.68834 2.45145 3.58852 3.17117 2.51186C4.24123 0.941697 5.95647 0 7.65349 0H7.72803C9.46149 0 11.2322 0.987019 12.2841 2.62466C12.9665 3.67916 13.2796 4.73265 13.2796 6.3703V6.79633ZM5.25174 18.0608C5.25174 17.5573 5.63686 17.3266 5.99299 17.2279C6.40959 17.1222 8.94807 17.1222 9.36467 17.2279C9.7208 17.3266 10.1059 17.5573 10.1059 18.0608C10.0852 18.5402 9.85083 18.9653 9.527 19.2352C9.10709 19.628 8.6143 19.8767 8.09915 19.9664C7.81424 20.0107 7.53431 20.0117 7.25934 19.9664C6.74336 19.8767 6.25057 19.628 5.83149 19.2342C5.50683 18.9653 5.27244 18.5402 5.25174 18.0608Z" fill="#212121"/>
</g>
</svg>
