<svg width="18" height="21" viewBox="0 0 18 21" fill="none" xmlns="http://www.w3.org/2000/svg">
<g id="Paper">
<path id="Paper_2" fill-rule="evenodd" clip-rule="evenodd" d="M5.92574 14.9193L11.3119 14.9193C11.7178 14.9193 12.0545 14.5793 12.0545 14.1693C12.0545 13.7593 11.7178 13.4293 11.3119 13.4293L5.92574 13.4293C5.5198 13.4293 5.18317 13.7593 5.18317 14.1693C5.18317 14.5793 5.5198 14.9193 5.92574 14.9193ZM9.27228 8.4293L5.92574 8.4293C5.5198 8.4293 5.18317 8.7693 5.18317 9.1793C5.18317 9.5893 5.5198 9.9193 5.92574 9.9193L9.27228 9.9193C9.67822 9.9193 10.0149 9.5893 10.0149 9.1793C10.0149 8.7693 9.67822 8.4293 9.27228 8.4293ZM16.3381 7.55491C16.5708 7.55222 16.8242 7.5493 17.0545 7.5493C17.302 7.5493 17.5 7.7493 17.5 7.9993L17.5 16.0393C17.5 18.5193 15.5099 20.5293 13.0545 20.5293L5.17327 20.5293C2.59901 20.5293 0.5 18.4193 0.5 15.8193L0.5 5.0393C0.5 2.5593 2.5 0.529297 4.96535 0.529297L10.2525 0.529297C10.5099 0.529297 10.7079 0.739297 10.7079 0.989297V4.2093C10.7079 6.0393 12.203 7.5393 14.0149 7.5493C14.4381 7.5493 14.8112 7.55246 15.1377 7.55523C15.3917 7.55738 15.6175 7.5593 15.8168 7.5593C15.9578 7.5593 16.1405 7.55719 16.3381 7.55491ZM16.6111 6.0953C15.7972 6.0983 14.8378 6.0953 14.1477 6.0883C13.0527 6.0883 12.1507 5.1773 12.1507 4.0713V1.4353C12.1507 1.0043 12.6685 0.790297 12.9646 1.1013C13.5004 1.66406 14.2368 2.43764 14.9699 3.20767C15.7009 3.97562 16.4286 4.74004 16.9507 5.2883C17.2398 5.5913 17.0279 6.0943 16.6111 6.0953Z" fill="white"/>
</g>
</svg>
