<svg width="9" height="8" viewBox="0 0 9 8" fill="none" xmlns="http://www.w3.org/2000/svg">
<g id="Input/ph:dot-outline-fill">
<path id="Vector" d="M7.29199 4C7.29199 4.51918 7.13804 5.02669 6.8496 5.45837C6.56116 5.89005 6.15119 6.2265 5.67154 6.42518C5.19188 6.62386 4.66408 6.67585 4.15488 6.57456C3.64568 6.47328 3.17795 6.22327 2.81084 5.85616C2.44373 5.48904 2.19372 5.02131 2.09243 4.51211C1.99115 4.00291 2.04313 3.47511 2.24181 2.99546C2.44049 2.5158 2.77694 2.10583 3.20862 1.81739C3.6403 1.52895 4.14782 1.375 4.66699 1.375C5.36319 1.375 6.03087 1.65156 6.52315 2.14384C7.01543 2.63613 7.29199 3.30381 7.29199 4Z" fill="#35D871"/>
</g>
</svg>
